<svg fill="none" height="60" viewBox="0 0 60 60" width="60" xmlns="http://www.w3.org/2000/svg" xmlns:xlink="http://www.w3.org/1999/xlink"><clipPath id="a"><path d="m0 0h60v60h-60z"/></clipPath><g clip-path="url(#a)" fill="#0b0b0b"><path d="m51.6756 45.5218-9.087-5.9715c-2.163-1.4213-4.9709-1.2977-6.9878.3067-1.766 1.4058-4.3016 1.2621-5.8974-.3342l-9.2266-9.2262c-1.5958-1.5962-1.7395-4.1318-.3342-5.8978 1.6049-2.0169 1.728-4.8248.3067-6.9878l-5.9715-9.08703c-1.0442-1.5889-2.6638-2.53967-4.56073-2.67746-1.89698-.13641-3.63602.56992-4.89853 1.99173-6.99463 7.87626-6.6362 19.88296.81573 27.33446l19.19263 19.1931c3.8773 3.8772 8.9873 5.8337 14.1079 5.8337 4.72 0 9.4491-1.663 13.227-5.018 1.4218-1.2629 2.1291-3.0025 1.9913-4.899-.1373-1.8965-1.0881-3.516-2.6775-4.5607zm-1.6479 6.8312c-6.487 5.761-16.377 5.4653-22.5151-.6729l-19.19313-19.1926c-6.13769-6.1382-6.43341-16.0282-.67291-22.51558.48798-.54932 1.09589-.82718 1.80908-.82718.06821 0 .13733.00275.20737.00778.80339.05814 1.43459.42893 1.87729 1.10188l5.9715 9.087c.5942.9046.5475 2.0307-.1199 2.8688-2.5191 3.1659-2.2614 7.7111.5992 10.5721l9.2267 9.2262c2.8606 2.861 7.4057 3.1187 10.5716.5992.8381-.6669 1.9642-.7141 2.8688-.1195l9.0871 5.9711c.6733.4427 1.0437 1.0739 1.1018 1.8773s-.2174 1.4818-.8194 2.0164z"/><path d="m59.4853.514984c-.3295-.32959-.7763-.514984-1.2423-.514984h-10.6041c-.9709 0-1.7578.786896-1.7578 1.75781 0 .97046.7869 1.75736 1.7578 1.75736h6.3684l-19.623 19.67373c-.6857.6871-.6839 1.8.0032 2.4857.3429.3419.7919.5131 1.241.5131.4504 0 .9013-.1721 1.2447-.5163l19.612-19.66279-.0005 6.35239c0 .9709.7869 1.7578 1.7574 1.7578h.0004c.9705 0 1.7574-.7869 1.7574-1.7578l.0004-10.60365c0-.46554-.1849-.912776-.515-1.242366z"/></g></svg>