<svg fill="none" height="46" viewBox="0 0 60 46" width="60" xmlns="http://www.w3.org/2000/svg"><path d="m60 8.17721v-.94677c0-3.56475-2.9002-6.464815-6.4648-6.464815h-47.07038c-3.56476 0-6.46482 2.900065-6.46482 6.464815v.94677.00691 31.05438c0 3.5645 2.90006 6.4645 6.46482 6.4645h47.07068c3.5646 0 6.4645-2.9 6.4645-6.4645v-31.05438c0-.00222 0-.00457 0-.00691zm-53.53518-3.89593h47.07038c1.6261 0 2.9491 1.32294 2.9491 2.94916v.00083l-23.5426 15.69503c-1.5671 1.0448-4.3161 1.0446-5.8829.0001l-23.54315-15.69525v-.00082c0-1.62611 1.32294-2.94905 2.94917-2.94905zm47.07068 37.90602h-47.07068c-1.62623 0-2.94917-1.3228-2.94917-2.9488v-27.7821l21.59305 14.3952c1.3715.9144 3.1311 1.3714 4.8914 1.3714 1.7598 0 3.5202-.4571 4.8917-1.3714l21.5927-14.3952v27.7821c-.0002 1.626-1.323 2.9488-2.949 2.9488z" fill="#0b0b0b"/></svg>