<svg fill="none" height="76" viewBox="0 0 60 76" width="60" xmlns="http://www.w3.org/2000/svg"><g fill="#000"><path d="m60 30.0057c.0024-14.6472-10.5733-27.15461-25.0173-29.586545s-28.53227 5.922725-33.32633 19.763245c-4.79405 13.8405 1.10807 29.1194 13.96163 36.1428l11.9117 16.1776h-3.7772c-.6904 0-1.25.5596-1.25 1.2499s.5596 1.2499 1.25 1.2499h12.4991c.6903 0 1.2499-.5596 1.2499-1.2499s-.5596-1.2499-1.2499-1.2499h-3.7772l11.9116-16.1776c9.6379-5.2455 15.6304-15.3466 15.614-26.3195zm-57.49608 0c-.00195-13.4588 9.73808-24.94122 23.01698-27.13449 13.2789-2.193266 26.194 5.54723 30.52 18.29179 4.3261 12.7447-1.2083 26.7477-13.0785 33.0911-.0088 0-.0175.015-.0263.02-1.8247.9847-3.758 1.7532-5.7608 2.2898-.5975.1694-.9799.7518-.898 1.3673.0819.6156.6033 1.0777 1.2242 1.085.1106.0003.2208-.0145.3275-.0437.6612-.1788 1.3086-.385 1.9499-.605l-9.7769 13.2766-9.7755-13.2766c.6412.22 1.2886.4262 1.9498.605.1063.0291.216.0438.3262.0437.6259-.0014 1.1543-.4655 1.2364-1.0859.0821-.6205-.3074-1.206-.9114-1.3701-2.0022-.5366-3.9351-1.3046-5.7596-2.2886-.01-.0063-.0175-.015-.0275-.0213-8.95921-4.7682-14.55162-14.0955-14.53648-24.2446z"/><path d="m28.7519 22.5067h2.4998c.6903 0 1.2499-.5596 1.2499-1.25 0-.6903-.5596-1.2499-1.2499-1.2499h-2.4998c-.6903 0-1.2499.5596-1.2499 1.2499 0 .6904.5596 1.25 1.2499 1.25z"/><path d="m28.7519 27.5057h2.4998c.6903 0 1.2499-.5596 1.2499-1.2499s-.5596-1.2499-1.2499-1.2499h-2.4998c-.6903 0-1.2499.5596-1.2499 1.2499s.5596 1.2499 1.2499 1.2499z"/><path d="m28.7519 32.5057h2.4998c.6903 0 1.2499-.5596 1.2499-1.2499s-.5596-1.2499-1.2499-1.2499h-2.4998c-.6903 0-1.2499.5596-1.2499 1.2499s.5596 1.2499 1.2499 1.2499z"/><path d="m32.5016 36.2548c0-.6903-.5596-1.2499-1.2499-1.2499h-2.4998c-.6903 0-1.2499.5596-1.2499 1.2499s.5596 1.2499 1.2499 1.2499h2.4998c.6903 0 1.2499-.5596 1.2499-1.2499z"/><path d="m23.4906 54.114c4.2603 1.1866 8.7638 1.1866 13.0241 0 .0853-.0138.169-.036.25-.0662 5.1039-1.4426 9.6178-4.4691 12.8903-8.6431.0378-.0438.0724-.0902.1038-.1388 7.9615-10.2689 6.7284-24.9251-2.8369-33.7194-9.5653-8.79441-24.2732-8.79441-33.8386 0-9.5653 8.7943-10.79834 23.4505-2.8368 33.7194.0313.0486.066.095.1037.1388 3.2713 4.1731 7.7832 7.1996 12.8854 8.6431.0825.0306.168.0528.255.0662zm11.5117-5.3596v3.1698c-1.2331.278-2.4875.4507-3.7498.5162v-3.686zm-9.9993 3.1698v-3.1698h3.7497v3.686c-1.2623-.0655-2.5167-.2382-3.7497-.5162zm0-10.6693v-24.9982h9.9993v24.9982zm-9.9994 0v-16.2488c0-.6904.5597-1.25 1.25-1.25h6.2495v17.4988zm22.4985-17.4988h6.2496c.6903 0 1.2499.5596 1.2499 1.25v16.2488h-7.4995zm-29.99794 6.2496c-.01572-9.6184 6.08474-18.183 15.18004-21.31167 9.0954-3.12871 19.1736-.12947 25.0784 7.46317 5.9047 7.5927 6.3297 18.0992 1.0575 26.1439-.378-.3623-.827-.6424-1.3187-.8224v-16.4726c0-2.071-1.6788-3.7498-3.7497-3.7498h-6.2496v-4.9996h1.2499c.6903 0 1.2499-.5596 1.2499-1.25 0-.6903-.5596-1.2499-1.2499-1.2499h-17.4988c-.6903 0-1.2499.5596-1.2499 1.2499 0 .6904.5596 1.25 1.2499 1.25h1.2499v4.9996h-6.2495c-2.071 0-3.7498 1.6788-3.7498 3.7498v16.4726c-.4917.18-.9407.4601-1.3186.8224-2.40289-3.6504-3.68268-7.9252-3.68104-12.2954zm5.18964 14.3528c.2245-.3717.6257-.6003 1.0599-.6037h32.4978c.4342.0034.8355.232 1.0599.6037-2.5963 3.1179-5.9849 5.4784-9.8093 6.8333v-2.4374c.6903 0 1.2499-.5596 1.2499-1.2499s-.5596-1.2499-1.2499-1.2499h-14.999c-.6903 0-1.2499.5596-1.2499 1.2499s.5596 1.2499 1.2499 1.2499v2.4374c-3.8244-1.3549-7.213-3.7154-9.8093-6.8333z"/><path d="m18.7538 28.7557c.6903 0 1.2499-.5596 1.2499-1.2499s-.5596-1.2499-1.2499-1.2499-1.2499.5596-1.2499 1.2499.5596 1.2499 1.2499 1.2499z"/><path d="m18.7538 33.7557c.6903 0 1.2499-.5596 1.2499-1.2499s-.5596-1.2499-1.2499-1.2499-1.2499.5596-1.2499 1.2499.5596 1.2499 1.2499 1.2499z"/><path d="m18.7538 38.7547c.6903 0 1.2499-.5596 1.2499-1.2499s-.5596-1.2499-1.2499-1.2499-1.2499.5596-1.2499 1.2499.5596 1.2499 1.2499 1.2499z"/><path d="m41.2519 28.7557c.6903 0 1.2499-.5596 1.2499-1.2499s-.5596-1.2499-1.2499-1.2499-1.2499.5596-1.2499 1.2499.5596 1.2499 1.2499 1.2499z"/><path d="m41.2519 33.7557c.6903 0 1.2499-.5596 1.2499-1.2499s-.5596-1.2499-1.2499-1.2499-1.2499.5596-1.2499 1.2499.5596 1.2499 1.2499 1.2499z"/><path d="m41.2519 38.7547c.6903 0 1.2499-.5596 1.2499-1.2499s-.5596-1.2499-1.2499-1.2499-1.2499.5596-1.2499 1.2499.5596 1.2499 1.2499 1.2499z"/></g></svg>